<svg width="102" height="40" viewBox="0 0 102 40" fill="none" xmlns="http://www.w3.org/2000/svg">
<path fill-rule="evenodd" clip-rule="evenodd" d="M36.293 13.8906H41.9401C45.4371 13.8906 47.9096 16.194 47.9096 19.466C47.9096 22.738 45.4371 25.0414 41.9401 25.0414H36.293V13.8906ZM40.683 22.0293H41.7074C42.8054 22.0293 43.3902 21.3048 43.3902 19.466C43.3902 17.6272 42.8054 16.9028 41.7074 16.9028H40.683V22.0293ZM57.8612 25.0414H48.5839V13.8906H57.8612V16.9028H52.96V18.1923H57.5688V20.6551H52.96V22.0312H57.8612V25.0414ZM68.1908 25.0414H58.9135V13.8906H68.1908V16.9028H63.2896V18.1923H67.8984V20.6551H63.2896V22.0312H68.1908V25.0414ZM101.859 25.0414C101.226 23.3365 100.343 21.5174 99.1538 19.4778C100.544 19.0742 101.376 18.206 101.376 16.8732C101.376 14.8455 99.488 13.8906 96.5023 13.8906H90.3578V25.0414H94.7479V20.4287C95.7225 22.0549 96.4426 23.5885 96.914 25.0414H101.859ZM94.7479 18.8715V16.9028H96.2696C96.914 16.9028 97.28 17.2512 97.28 17.8871C97.28 18.525 96.914 18.8715 96.2696 18.8715H94.7479ZM89.3056 25.0414H80.0282V13.8906H89.3056V16.9028H84.4043V18.1923H89.0132V20.6551H84.4043V22.0312H89.3056V25.0414ZM69.2451 16.9028H73.7744C71.8946 18.4246 70.3491 20.1472 69.1576 22.0293V25.0414H79.1212V22.0293H74.1404C75.2821 20.3854 76.8754 18.7494 79.1212 16.9028V13.8906H69.2451V16.9028Z" fill="black"/>
<path fill-rule="evenodd" clip-rule="evenodd" d="M23.9313 11.3095C24.1959 9.79557 24.5818 8.84272 25.0114 8.84075C25.8111 8.84272 26.4595 12.1462 26.4595 16.2234C26.4595 20.3006 25.8091 23.6061 25.0095 23.6061C24.6813 23.6061 24.3789 23.045 24.1342 22.104C23.7483 25.5472 22.9487 27.9136 22.0218 27.9136C21.3057 27.9136 20.6612 26.4922 20.2296 24.2499C19.9352 28.5141 19.1932 31.538 18.3259 31.538C17.7809 31.538 17.2856 30.3391 16.9176 28.3881C16.476 32.418 15.4556 35.2412 14.2641 35.2412C13.0746 35.2412 12.0522 32.418 11.6106 28.3881C11.2466 30.3391 10.7493 31.538 10.2023 31.538C9.33503 31.538 8.59507 28.5121 8.29869 24.2499C7.86705 26.4922 7.22456 27.9136 6.50648 27.9136C5.58153 27.9136 4.7799 25.5472 4.39401 22.104C4.15134 23.047 3.847 23.6061 3.51879 23.6061C2.71717 23.6061 2.06871 20.3006 2.06871 16.2234C2.06871 12.1462 2.71915 8.84075 3.51879 8.84075C3.94844 8.84075 4.33434 9.79557 4.60088 11.3095C5.02855 8.699 5.72276 7 6.50648 7C7.43739 7 8.24499 9.39986 8.6269 12.8864C9.00086 10.3488 9.56776 8.73247 10.2023 8.73247C11.0914 8.73247 11.8493 11.9139 12.1298 16.3494C12.6569 14.0756 13.4207 12.6482 14.2641 12.6482C15.1095 12.6482 15.8713 14.0756 16.3985 16.3494C16.6789 11.9119 17.4348 8.73247 18.3259 8.73247C18.9605 8.73247 19.5254 10.3488 19.9013 12.8864C20.2833 9.40183 21.0889 7 22.0218 7C22.8075 7 23.5037 8.699 23.9313 11.3095ZM0 15.497C0 13.6739 0.367991 12.1954 0.823504 12.1954C1.27703 12.1954 1.64701 13.6739 1.64701 15.497C1.64701 17.32 1.27902 18.7985 0.823504 18.7985C0.367991 18.7985 0 17.32 0 15.497ZM26.8872 15.497C26.8872 13.6739 27.2552 12.1954 27.7107 12.1954C28.1642 12.1954 28.5342 13.6739 28.5342 15.497C28.5342 17.32 28.1662 18.7985 27.7107 18.7985C27.2552 18.7985 26.8872 17.32 26.8872 15.497Z" fill="black"/>
</svg>
